<?xml version="1.0" encoding="utf-8"?><!DOCTYPE svg PUBLIC "-//W3C//DTD SVG 1.1//EN" "http://www.w3.org/Graphics/SVG/1.1/DTD/svg11.dtd"><svg version="1.1" xmlns="http://www.w3.org/2000/svg" x="0px" y="0px" width="64px" height="64px" viewBox="0 0 64 64" enable-background="new 0 0 64 64" xml:space="preserve"><path fill-rule="evenodd" clip-rule="evenodd" fill="#FFFFFF" d="M0.118,0h17.765v18H0V0H0.118L0.118,0z M2.588,2.706v12.589h12.588V2.706H2.588L2.588,2.706z"/><path fill-rule="evenodd" clip-rule="evenodd" fill="#FFFFFF" d="M46.236,0H64v18H46.117V0H46.236L46.236,0z M48.707,2.706v12.589h12.587V2.706H48.707L48.707,2.706z"/><polygon fill-rule="evenodd" clip-rule="evenodd" fill="#FFFFFF" points="5.059,5.176 12.706,5.176 12.706,12.824 5.059,12.824 5.059,5.176"/><polygon fill-rule="evenodd" clip-rule="evenodd" fill="#FFFFFF" points="58.941,5.176 58.941,12.824 51.177,12.824 51.177,5.176 58.941,5.176"/><polygon fill-rule="evenodd" clip-rule="evenodd" fill="#FFFFFF" points="20.353,20.353 20.353,23.059 12.588,23.059 12.588,20.353 20.353,20.353"/><path fill-rule="evenodd" clip-rule="evenodd" fill="#FFFFFF" d="M0.118,46.117h17.765V64H0V46.117H0.118L0.118,46.117z M2.588,48.707v12.587h12.588V48.707H2.588L2.588,48.707z"/><polygon fill-rule="evenodd" clip-rule="evenodd" fill="#FFFFFF" points="61.294,46.117 64,46.117 64,51.293 61.294,51.293 61.294,46.117"/><polygon fill-rule="evenodd" clip-rule="evenodd" fill="#FFFFFF" points="12.706,51.177 12.706,58.941 5.059,58.941 5.059,51.177 12.706,51.177"/><polygon fill-rule="evenodd" clip-rule="evenodd" fill="#FFFFFF" points="25.412,58.824 25.412,61.294 30.588,61.294 30.588,64 20.235,64 20.235,58.824 25.412,58.824"/><path fill-rule="evenodd" clip-rule="evenodd" fill="#FFFFFF" d="M22.824,0h7.765v2.588h2.823V0h5.176v2.706h-5.059v2.589h-2.94v4.941h2.823V7.647h2.471V5.176h5.176V2.588h2.588v2.706h-2.471v2.353h2.471v5.177h-2.588v-2.471h-2.588V7.765H36v4.941h2.588V18h-2.705v-2.588h-2.354v4.941h7.53v-5.059h2.588v5.176h-2.471V28h2.353v-2.588h2.707V28h4.94v-2.471h-2.589v-2.588h2.589v-2.588h5.175v2.588h5.06v2.471H64v8.117h-2.589V36H64v5.177h-2.706v-2.589h-2.353v7.648h-2.59v2.471h-2.47v2.47h5.06v2.589H64V64h-2.706v-7.648h-2.353v2.59h-2.706v-2.59h-2.47v-2.47h-5.059v2.354h2.586v2.589h2.589v2.47h2.47V64h-2.586v-2.589H43.647V64h-5.177v-2.706h2.588v-5.059h2.47v-2.354h-4.941v5.06h-2.705v-5.06h-2.354v2.47h-3.058v-2.47H28v2.47h-5.177v-2.586h5.059v-5.059h-2.588v-2.59H28v2.471h2.471v-2.471H36v2.471h5.059v-10h-2.471v5.059h-8.117v-5.176h2.94V36h-2.94v-2.471h5.412V28h2.588v-2.471h-2.588v-2.471h-5.412v-7.764h2.94v-2.47h-2.94v-2.471H28V18h-2.588v2.353H28v5.059h5.528V28h-2.94v2.588H28V36h-2.588v2.471H28v5.176h-5.059v7.646h-2.706v-7.646h-7.647v-5.059h-2.353v5.059H7.53v-2.47H5.176v2.47H2.471V36h2.588v-2.471H0V28h2.588v2.588h2.471v-5.059H0v-5.176h5.176v5.059H7.53v-2.471h2.706v2.588H7.647v5.059h2.588V36h2.353v-5.412h5.177V28h-2.589v-2.588h2.706V28h4.941v-2.588h2.471v-2.354h-2.471V18h-2.588v-2.706h2.588v-2.47h-2.588V7.647h2.588V5.176h5.059V2.706h-5.059V0L22.824,0z M56.352,25.882v4.706h-5.059v2.941h-5.176V28h-2.47v10.47h2.47V36h5.176v5.059h2.589v5.058h2.354v-7.529h-2.47V36h2.586v2.471h2.473v-4.941h2.47V28h-2.47v-2.471h-2.473V25.882L56.352,25.882z M15.294,36h2.588v2.471h2.471v2.588h4.941v-2.471h-2.471V36h-2.588v-2.471h-4.941V36L15.294,36z M50.823,43.647h-7.176v7.53h7.529v-7.53H50.823L50.823,43.647z"/></svg>