<?xml version="1.0" encoding="utf-8"?>
<!-- Generator: Adobe Illustrator 15.1.0, SVG Export Plug-In  -->
<!DOCTYPE svg PUBLIC "-//W3C//DTD SVG 1.1//EN" "http://www.w3.org/Graphics/SVG/1.1/DTD/svg11.dtd" [
	<!ENTITY ns_flows "http://ns.adobe.com/Flows/1.0/">
]>
<svg version="1.1"
	 xmlns="http://www.w3.org/2000/svg" xmlns:xlink="http://www.w3.org/1999/xlink" xmlns:a="http://ns.adobe.com/AdobeSVGViewerExtensions/3.0/"
	 x="0px" y="0px" width="174px" height="9px" viewBox="-0.278 -0.326 174 9" enable-background="new -0.278 -0.326 174 9"
	 xml:space="preserve">
<defs>
</defs>
<path fill="#166A92" d="M6.352,6.309c0.096,0.36,0.18,0.888,0.18,0.888s0.097-0.527,0.192-0.888L8.282,0.24
	C8.307,0.145,8.354,0.097,8.45,0.097h0.313c0.107,0,0.144,0.036,0.119,0.144L6.879,8.108c-0.023,0.096-0.083,0.144-0.18,0.144H6.34
	c-0.096,0-0.145-0.048-0.168-0.144L4.601,1.943C4.528,1.703,4.457,1.26,4.444,1.176L4.276,1.943L2.718,8.108
	c-0.024,0.096-0.084,0.144-0.18,0.144h-0.36c-0.096,0-0.155-0.048-0.18-0.144L0.007,0.24C-0.017,0.133,0.02,0.097,0.115,0.097h0.372
	c0.096,0,0.144,0.048,0.168,0.144L2.19,6.309l0.191,0.84c0.012-0.06,0.108-0.54,0.191-0.84l1.56-6.068
	c0.024-0.096,0.06-0.144,0.168-0.144h0.336c0.096,0,0.144,0.048,0.168,0.144L6.352,6.309z"/>
<path fill="#166A92" d="M22.777,8.252c-0.084,0-0.132-0.048-0.132-0.144V0.24c0-0.096,0.048-0.144,0.144-0.144h4.09
	c0.097,0,0.145,0.036,0.145,0.144v0.264c0,0.108-0.048,0.145-0.145,0.145h-3.598v3.046h3.382c0.096,0,0.145,0.036,0.145,0.144V4.09
	c0,0.097-0.049,0.145-0.145,0.145h-3.382V7.7h3.742c0.096,0,0.144,0.036,0.144,0.144v0.265c0,0.107-0.048,0.144-0.144,0.144H22.777z
	"/>
<path fill="#166A92" d="M41.721,7.7h3.55c0.096,0,0.145,0.036,0.145,0.144v0.265c0,0.107-0.049,0.144-0.145,0.144h-4.065
	c-0.072,0-0.12-0.048-0.12-0.144V0.24c0-0.096,0.048-0.144,0.144-0.144h0.36c0.096,0,0.132,0.048,0.132,0.144V7.7z"/>
<path fill="#166A92" d="M63.938,6.657c0,0.936-0.516,1.69-2.447,1.69c-1.931,0-2.446-0.755-2.446-1.69V1.691
	C59.044,0.756,59.56,0,61.49,0c1.932,0,2.447,0.756,2.447,1.691v0.624c0,0.107-0.036,0.155-0.132,0.155h-0.349
	c-0.096,0-0.144-0.048-0.144-0.155V1.787c0-0.731-0.42-1.235-1.823-1.235S59.68,1.056,59.68,1.787v4.773
	c0,0.732,0.407,1.235,1.811,1.235s1.823-0.503,1.823-1.235V5.877c0-0.096,0.048-0.132,0.144-0.132h0.349
	c0.096,0,0.132,0.036,0.132,0.132V6.657z"/>
<path fill="#166A92" d="M77.789,1.691C77.789,0.756,78.364,0,80.283,0c1.932,0,2.519,0.756,2.519,1.691v4.966
	c0,0.936-0.587,1.69-2.519,1.69c-1.919,0-2.494-0.755-2.494-1.69V1.691z M82.154,1.787c0-0.731-0.468-1.235-1.871-1.235
	c-1.391,0-1.858,0.504-1.858,1.235v4.773c0,0.732,0.468,1.235,1.858,1.235c1.403,0,1.871-0.503,1.871-1.235V1.787z"/>
<path fill="#166A92" d="M103.245,8.108c0,0.096-0.036,0.144-0.133,0.144h-0.348c-0.096,0-0.144-0.048-0.144-0.144V1.476L102.405,2.1
	l-1.967,4.761c-0.036,0.097-0.097,0.145-0.192,0.145H99.91c-0.096,0-0.144-0.048-0.18-0.145l-2.039-4.845
	c-0.084-0.168-0.168-0.468-0.18-0.528v6.621c0,0.096-0.036,0.144-0.132,0.144h-0.324c-0.096,0-0.144-0.048-0.144-0.144V0.24
	c0-0.096,0.048-0.144,0.144-0.144h0.324c0.072,0,0.107,0.023,0.132,0.084l2.375,5.601c0.107,0.252,0.191,0.563,0.191,0.563
	s0.12-0.348,0.204-0.552l2.351-5.625c0.024-0.06,0.061-0.071,0.132-0.071h0.348c0.097,0,0.133,0.048,0.133,0.144V8.108z"/>
<path fill="#166A92" d="M117.574,8.252c-0.084,0-0.132-0.048-0.132-0.144V0.24c0-0.096,0.048-0.144,0.144-0.144h4.09
	c0.097,0,0.145,0.036,0.145,0.144v0.264c0,0.108-0.048,0.145-0.145,0.145h-3.598v3.046h3.382c0.096,0,0.145,0.036,0.145,0.144V4.09
	c0,0.097-0.049,0.145-0.145,0.145h-3.382V7.7h3.742c0.096,0,0.144,0.036,0.144,0.144v0.265c0,0.107-0.048,0.144-0.144,0.144H117.574
	z"/>
<path fill="#166A92" d="M154.772,0.097c0.096,0,0.144,0.036,0.144,0.144v0.264c0,0.108-0.048,0.145-0.144,0.145h-2.183v7.46
	c0,0.096-0.036,0.144-0.132,0.144h-0.36c-0.107,0-0.144-0.048-0.144-0.144v-7.46h-2.171c-0.108,0-0.144-0.036-0.144-0.145V0.24
	c0-0.107,0.035-0.144,0.144-0.144H154.772z"/>
<path fill="#166A92" d="M168.432,1.691c0-0.936,0.575-1.691,2.494-1.691c1.932,0,2.519,0.756,2.519,1.691v4.966
	c0,0.936-0.587,1.69-2.519,1.69c-1.919,0-2.494-0.755-2.494-1.69V1.691z M172.797,1.787c0-0.731-0.468-1.235-1.871-1.235
	c-1.391,0-1.858,0.504-1.858,1.235v4.773c0,0.732,0.468,1.235,1.858,1.235c1.403,0,1.871-0.503,1.871-1.235V1.787z"/>
</svg>
